<svg xmlns="http://www.w3.org/2000/svg" id="Layer_1" data-name="Layer 1" viewBox="0 0 80 80">
  <defs>
    <style>
      .cls-4{fill:#fff}
    </style>
  </defs>
  <path fill="#fff" fill-rule="evenodd" d="M40 1.84A38.16 38.16 0 1 1 1.84 40 38.15 38.15 0 0 1 40 1.84"/>
  <path fill="#20b576" d="M75 40A35 35 0 1 1 40 5a35 35 0 0 1 35 35"/>
  <path fill="#009d67" d="M31.06 55.79l18 18A35 35 0 0 0 75 40v-1L60.87 26z"/>
  <path d="M40.88 47.84a4.12 4.12 0 0 1 0 5.74l-3.2 3.2a4.12 4.12 0 0 1-5.74 0l-14-14.13a4.12 4.12 0 0 1 0-5.74l3.2-3.2a4.12 4.12 0 0 1 5.74 0z" class="cls-4"/>
  <path d="M53.14 23.44a4.12 4.12 0 0 1 5.74 0l3.2 3.2a4.12 4.12 0 0 1 0 5.74L37.79 56.56a4.12 4.12 0 0 1-5.74 0l-3.2-3.2a4.12 4.12 0 0 1 0-5.74z" class="cls-4"/>
</svg>
